# xmcd
#
# Track frame offsets: 
#        150
#        22932
#        35612
#        55694
#        73124
#        84866
#        99654
#        113028
#        132530
#        152751
#        163909
#        183735
#        200088
#        224700
#
# Disc length: 3259 seconds
#
# Revision: 0
# Processed by: cddbd v1.5.2PL0 Copyright (c) Steve Scherf et al.
# Submitted via: ExactAudioCopy v0.99pb5
#
DISCID=cd0cb90e
DTITLE=Олег Митяев - Крепитись люди скоро лето
DYEAR=1998
DGENRE=Chanson
TTITLE0=Крепитесь, люди, скоро лето!
TTITLE1=Ночная прогулка
TTITLE2=Мама
TTITLE3=Питер
TTITLE4=На перроне разлук
TTITLE5=Тот день
TTITLE6=Непраздничные вещи
TTITLE7=Воскресенье
TTITLE8=Когда проходят дни запоя
TTITLE9=А казалось бы
TTITLE10=Чужая война
TTITLE11=Не надо сердиться
TTITLE12=Остров
TTITLE13=Телеграмма
EXTD=
EXTT0=
EXTT1=
EXTT2=
EXTT3=
EXTT4=
EXTT5=
EXTT6=
EXTT7=
EXTT8=
EXTT9=
EXTT10=
EXTT11=
EXTT12=
EXTT13=
PLAYORDER=
